<?xml version="1.0" standalone="no"?>
<!DOCTYPE svg PUBLIC "-//W3C//DTD SVG 1.1//EN" "http://www.w3.org/Graphics/SVG/1.1/DTD/svg11.dtd" >
<svg >
<metadata></metadata>
<defs>
<font id="simplon_bpregular" horiz-adv-x="1159" >
<font-face units-per-em="2048" ascent="1671" descent="-377" />
<missing-glyph horiz-adv-x="460" />
<glyph unicode="&#xfb01;" horiz-adv-x="1110" d="M57 909v148h150v125q0 138 54 195t198 57h162v-148h-162q-55 0 -77 -20.5t-22 -71.5v-137h261v-148h-261v-909h-153v909h-150zM803 0v1057h153v-1057h-153zM803 1235v199h153v-199h-153z" />
<glyph unicode="&#xfb02;" horiz-adv-x="1169" d="M57 909v148h150v125q0 138 54 195t198 57h162v-148h-162q-55 0 -77 -20.5t-22 -71.5v-137h261v-148h-261v-909h-153v909h-150zM799 252q0 -138 54 -195t198 -57h32v147h-32q-55 0 -77 21t-22 72v1194h-153v-1182z" />
<glyph unicode="&#xfb03;" horiz-adv-x="1759" d="M57 909v148h150v125q0 138 54 195t198 57h162v-148h-162q-55 0 -77 -20.5t-22 -71.5v-137h261v-148h-261v-909h-153v909h-150zM707 909v148h149v125q0 138 54 195t198 57h162v-148h-162q-55 0 -76.5 -20.5t-21.5 -71.5v-137h260v-148h-260v-909h-154v909h-149zM1452 0 v1057h154v-1057h-154zM1452 1235v199h154v-199h-154z" />
<glyph unicode="&#xfb04;" horiz-adv-x="1818" d="M57 909v148h150v125q0 138 54 195t198 57h162v-148h-162q-55 0 -77 -20.5t-22 -71.5v-137h261v-148h-261v-909h-153v909h-150zM707 909v148h149v125q0 138 54 195t198 57h162v-148h-162q-55 0 -76.5 -20.5t-21.5 -71.5v-137h260v-148h-260v-909h-154v909h-149zM1448 252 q0 -138 54 -195t198 -57h33v147h-33q-55 0 -76.5 21t-21.5 72v1194h-154v-1182z" />
<glyph horiz-adv-x="0" />
<glyph horiz-adv-x="682" />
<glyph unicode=" "  horiz-adv-x="460" />
<glyph unicode="&#x09;" horiz-adv-x="460" />
<glyph unicode="&#xa0;" horiz-adv-x="460" />
<glyph unicode="!" horiz-adv-x="563" d="M174 0v215h215v-215h-215zM205 430v1004h153v-1004h-153z" />
<glyph unicode="&#x22;" horiz-adv-x="827" d="M164 975v459h153v-459h-153zM510 975v459h154v-459h-154z" />
<glyph unicode="#" horiz-adv-x="1433" d="M170 422v133h174l80 324h-174v133h207l106 422h139l-106 -422h385l106 422h140l-107 -422h146v-133h-179l-79 -324h176v-133h-209l-105 -422h-139l105 422h-385l-105 -422h-139l104 422h-141zM483 555h385l80 324h-385z" />
<glyph unicode="$" horiz-adv-x="1032" d="M84 424h154q17 -126 80 -203t163 -92v526l-88 33q-284 107 -284 387q0 71 23 134.5t67.5 116t117 86t164.5 40.5v186h88v-186q145 -14 243.5 -116t105.5 -265h-152q-12 98 -65 159t-132 73v-512l88 -33q136 -50 207.5 -156.5t71.5 -247.5q0 -157 -92 -259t-275 -113v-187 h-88v187q-167 14 -275.5 132t-121.5 310zM262 1077q0 -172 168 -235l51 -19v482q-112 -11 -165.5 -73t-53.5 -155zM569 129q102 9 157.5 66t55.5 159q0 82 -41.5 151t-128.5 101l-43 17v-494z" />
<glyph unicode="%" horiz-adv-x="1720" d="M139 848v340q0 73 25 126.5t66 80.5t82 39t85 12t86 -12t83 -39t66 -80.5t25 -126.5v-340q0 -73 -25 -126.5t-66 -80.5t-83 -39t-86 -12t-85 12t-82 39t-66 80.5t-25 126.5zM272 852q0 -67 33 -100t92 -33q60 0 93.5 33t33.5 100v332q0 67 -33.5 100t-93.5 33 q-59 0 -92 -33t-33 -100v-332zM295 0l985 1434h145l-985 -1434h-145zM1063 246v340q0 73 25 126.5t66 80.5t82 39t85 12t86 -12t83 -39t66 -80.5t25 -126.5v-340q0 -73 -25 -126.5t-66 -80.5t-83 -39t-86 -12t-85 12t-82 39t-66 80.5t-25 126.5zM1196 250q0 -67 33 -100 t92 -33q60 0 93.5 33t33.5 100v332q0 67 -33.5 100t-93.5 33q-59 0 -92 -33t-33 -100v-332z" />
<glyph unicode="&#x26;" horiz-adv-x="1214" d="M111 395q0 109 49.5 196.5t124.5 129.5q-76 39 -125 123.5t-49 195.5q0 103 33.5 181t91 123.5t127.5 67.5t151 22h270v-148h-270q-109 0 -179.5 -65.5t-70.5 -180.5t70.5 -180t179.5 -65h270v163h154v-163h260v-148h-260v-647h-424q-80 0 -150.5 23t-128 68.5t-91 123.5 t-33.5 180zM264 397q0 -116 66 -183t184 -67h270v500h-270q-118 0 -184 -67t-66 -183z" />
<glyph unicode="'" horiz-adv-x="481" d="M164 975v459h153v-459h-153z" />
<glyph unicode="(" horiz-adv-x="561" d="M197 18q0 -138 53.5 -194.5t198.5 -56.5h32v131h-45q-61 0 -83.5 24t-22.5 80v1196q0 56 22.5 80.5t83.5 24.5h45v131h-32q-144 0 -198 -57t-54 -195v-1164z" />
<glyph unicode=")" horiz-adv-x="561" d="M80 -102h45q61 0 83.5 24t22.5 80v1196q0 56 -22.5 80.5t-83.5 24.5h-45v131h33q144 0 198 -57t54 -195v-1164q0 -138 -53.5 -194.5t-198.5 -56.5h-33v131z" />
<glyph unicode="*" horiz-adv-x="972" d="M137 1133l242 -80l-150 -205l107 -78l151 205l150 -205l106 78l-149 205l242 80l-41 124l-242 -77v254h-133v-254l-242 77z" />
<glyph unicode="+" horiz-adv-x="1142" d="M158 508v133h352v346h133v-346h342v-133h-342v-348h-133v348h-352z" />
<glyph unicode="," horiz-adv-x="563" d="M174 0v215h215v-215l-72 -193h-131l72 193h-84z" />
<glyph unicode="-" horiz-adv-x="819" d="M113 508v133h594v-133h-594z" />
<glyph unicode="." horiz-adv-x="563" d="M174 0v215h215v-215h-215z" />
<glyph unicode="/" horiz-adv-x="706" d="M-10 0l579 1434h148l-580 -1434h-147z" />
<glyph unicode="0" horiz-adv-x="1089" d="M131 393v647q0 90 24.5 162t64.5 118.5t94.5 77t111.5 43.5t119 13t119 -13t111.5 -43.5t94 -77t64 -118.5t24.5 -162v-647q0 -90 -24.5 -162t-64 -118t-94 -77t-111.5 -43.5t-119 -12.5t-119 12.5t-111.5 43.5t-94.5 77t-64.5 118t-24.5 162zM285 391q0 -126 75 -195 t185 -69t185 69t75 195v651q0 126 -75.5 195.5t-184.5 69.5t-184.5 -69.5t-75.5 -195.5v-651z" />
<glyph unicode="1" horiz-adv-x="698" d="M96 1004v194l275 236h153v-1434h-153v1239z" />
<glyph unicode="2" horiz-adv-x="1034" d="M98 0v147l510 562q164 179 164 340q0 121 -75.5 189.5t-184.5 68.5t-184.5 -69.5t-75.5 -195.5v-38h-154v36q0 90 24.5 162t64.5 118.5t94.5 77t111.5 43.5t119 13t119 -13t111.5 -43.5t94.5 -76t64.5 -116t24.5 -158.5q0 -121 -52.5 -222t-156.5 -215l-420 -463h629 v-147h-828z" />
<glyph unicode="3" horiz-adv-x="1046" d="M96 393q0 -90 25 -162t65.5 -118t96.5 -77t114.5 -43.5t122.5 -12.5q77 0 147 23t128.5 69t93.5 126t35 183q0 118 -49 208t-125 132q75 39 124.5 127.5t49.5 204.5q0 103 -35 182.5t-95 125.5t-131.5 69.5t-152.5 23.5q-62 0 -119 -13t-111.5 -43.5t-94.5 -77 t-64.5 -118.5t-24.5 -162v-16h154v18q0 126 75.5 195.5t184.5 69.5q110 0 185 -69t75 -185q0 -121 -70.5 -189.5t-179.5 -68.5h-102v-148h102q112 0 181 -79t69 -187q0 -119 -68.5 -186.5t-181.5 -67.5q-114 0 -192 69t-78 195v19h-154v-17z" />
<glyph unicode="4" horiz-adv-x="1048" d="M31 387v143l657 904h154v-904h149v-143h-149v-387h-154v387h-657zM207 530h481v660z" />
<glyph unicode="5" horiz-adv-x="1048" d="M131 393v17h154v-19q0 -126 75 -195t185 -69t185 69t75 195v107q0 126 -75 195t-185 69q-81 0 -147.5 -40.5t-94.5 -115.5h-153v828h753v-148h-600v-459q45 39 110.5 60.5t131.5 21.5q62 0 119 -12.5t111.5 -43.5t94 -77t64 -118t24.5 -162v-103q0 -90 -24.5 -162 t-64 -118t-94 -77t-111.5 -43.5t-119 -12.5t-119 12.5t-111.5 43.5t-94.5 77t-64.5 118t-24.5 162z" />
<glyph unicode="6" horiz-adv-x="1077" d="M131 393v647q0 90 24.5 162t64.5 118.5t94.5 77t111.5 43.5t119 13t119 -13t111.5 -43.5t94 -77t64 -118.5t24.5 -162v-16h-153v18q0 126 -75.5 195.5t-184.5 69.5t-184.5 -69.5t-75.5 -195.5v-247q39 45 112.5 72.5t147.5 27.5q62 0 119 -13t111.5 -43.5t94 -77 t64 -118.5t24.5 -162v-88q0 -90 -24.5 -162t-64 -118t-94 -77t-111.5 -43.5t-119 -12.5t-119 12.5t-111.5 43.5t-94.5 77t-64.5 118t-24.5 162zM285 391q0 -126 75 -195t185 -69t185 69t75 195v92q0 126 -75.5 195.5t-184.5 69.5t-184.5 -69.5t-75.5 -195.5v-92z" />
<glyph unicode="7" horiz-adv-x="901" d="M37 1286v148h815v-148l-453 -1286h-161l452 1286h-653z" />
<glyph unicode="8" horiz-adv-x="1073" d="M123 387q0 -102 34.5 -181.5t93.5 -128t132 -73t154 -24.5t154 24.5t131.5 73t93 128t34.5 181.5q0 227 -168 334q154 124 154 330q0 102 -33.5 181.5t-91 126.5t-127 71t-147.5 24t-148 -24t-127 -71t-91 -126.5t-34 -181.5q0 -206 154 -330q-168 -107 -168 -334z M276 387q0 116 77 189t184 73t183.5 -73t76.5 -189t-76.5 -188t-183.5 -72t-184 72t-77 188zM291 1051q0 115 65.5 185.5t180.5 70.5t180 -70.5t65 -185.5q0 -123 -69.5 -189.5t-175.5 -66.5q-107 0 -176.5 67t-69.5 189z" />
<glyph unicode="9" horiz-adv-x="1077" d="M119 393v17h153v-19q0 -126 75 -195t185 -69t185.5 69t75.5 195v248q-39 -45 -113 -72.5t-148 -27.5q-62 0 -119 12.5t-111.5 43.5t-94 77t-64 118t-24.5 162v88q0 90 24.5 162t64 118.5t94 77t111.5 43.5t119 13t119 -13t111.5 -43.5t94.5 -77t64.5 -118.5t24.5 -162 v-647q0 -90 -24.5 -162t-64.5 -118t-94.5 -77t-111.5 -43.5t-119 -12.5t-119 12.5t-111.5 43.5t-94 77t-64 118t-24.5 162zM272 950q0 -126 75 -195t185 -69t185.5 69t75.5 195v92q0 126 -75.5 195.5t-185.5 69.5q-109 0 -184.5 -69.5t-75.5 -195.5v-92z" />
<glyph unicode=":" horiz-adv-x="563" d="M174 0v215h215v-215h-215zM174 842v215h215v-215h-215z" />
<glyph unicode=";" horiz-adv-x="563" d="M174 0v215h215v-215l-72 -193h-131l72 193h-84zM174 842v215h215v-215h-215z" />
<glyph unicode="&#x3c;" horiz-adv-x="1142" d="M158 455v151l827 465v-153l-688 -388l688 -387v-153z" />
<glyph unicode="=" horiz-adv-x="1142" d="M158 287v133h827v-133h-827zM158 707v133h827v-133h-827z" />
<glyph unicode="&#x3e;" horiz-adv-x="1142" d="M158 -10l827 465v151l-827 465v-153l688 -388l-688 -387v-153z" />
<glyph unicode="?" horiz-adv-x="1028" d="M86 1024v16q0 90 24.5 162t64.5 118.5t94.5 77t111.5 43.5t119 13t119 -13t111.5 -43.5t94 -77t64 -118.5t24.5 -162q0 -86 -41 -169.5t-100 -137.5l-123 -112q-43 -40 -58.5 -71t-15.5 -75v-45h-153v45q0 81 26.5 132t92.5 112l123 112q37 36 66.5 92t29.5 119 q0 126 -75.5 195.5t-184.5 69.5t-184.5 -69.5t-75.5 -195.5v-18h-154zM393 0v215h215v-215h-215z" />
<glyph unicode="@" horiz-adv-x="1818" d="M143 303v451q0 152 59.5 283t162 222t243.5 143t301 52t301 -52t243.5 -143t162 -222t59.5 -283v-537q0 -118 -63 -177.5t-178 -59.5q-191 0 -265 129q-100 -129 -329 -129q-69 0 -131 19t-112 56t-79 98t-29 140q0 44 10.5 85.5t35 85t71.5 78.5t113 54q82 24 185 36 t265 23v19q0 126 -75 195t-185 69q-95 0 -165.5 -53t-88.5 -152h-157q10 95 49 165.5t98 110t125 58t139 18.5q62 0 119 -12.5t111.5 -43.5t94.5 -77t64.5 -118t24.5 -162v-445q0 -53 30.5 -84.5t80.5 -31.5t79 31t29 85v527q0 122 -51.5 229t-138 181t-202 116.5 t-241.5 42.5t-241.5 -42.5t-202 -116.5t-138 -181t-51.5 -229v-451q0 -122 51.5 -229t138 -181t202 -116.5t241.5 -42.5q222 0 391 116l72 -114q-201 -133 -463 -133q-160 0 -301 52t-243.5 143t-162 222t-59.5 283zM643 297q0 -76 58.5 -123t170.5 -47q130 0 213.5 67 t83.5 187v137q-190 -13 -286.5 -27.5t-147.5 -41.5q-54 -30 -73 -65.5t-19 -86.5z" />
<glyph unicode="A" d="M29 0l460 1434h181l460 -1434h-159l-131 403h-521l-131 -403h-159zM367 549h426l-213 665z" />
<glyph unicode="B" horiz-adv-x="1185" d="M164 0v1434h477q88 0 159.5 -23t118 -61t78 -89.5t45 -106.5t13.5 -114q0 -101 -43.5 -182t-114.5 -125q94 -47 143.5 -137.5t49.5 -194.5q0 -79 -22.5 -147.5t-69 -127t-129 -92.5t-193.5 -34h-512zM322 156h354q118 0 186 65t68 180t-68 180.5t-186 65.5h-354v-491z M322 803h319q119 0 186.5 66t67.5 171t-67.5 171.5t-186.5 66.5h-319v-475z" />
<glyph unicode="C" horiz-adv-x="1144" d="M121 465v504q0 223 127.5 354t335.5 131q198 0 323 -119t137 -325h-157q-12 138 -95.5 213t-207.5 75q-133 0 -219 -86t-86 -243v-504q0 -157 86 -243.5t219 -86.5q124 0 207.5 75.5t95.5 213.5h157q-12 -206 -137 -325t-323 -119q-208 0 -335.5 131t-127.5 354z" />
<glyph unicode="D" horiz-adv-x="1210" d="M164 0v1434h463q208 0 335.5 -131.5t127.5 -354.5v-463q0 -223 -127.5 -354t-335.5 -131h-463zM322 156h305q133 0 219 86t86 243v463q0 157 -85.5 242.5t-219.5 87.5h-305v-1122z" />
<glyph unicode="E" horiz-adv-x="1110" d="M164 0v1434h815v-156h-657v-475h657v-156h-657v-491h657v-156h-815z" />
<glyph unicode="F" horiz-adv-x="1089" d="M164 0v1434h815v-156h-657v-475h657v-156h-657v-647h-158z" />
<glyph unicode="G" d="M121 465v504q0 223 127.5 354t335.5 131q198 0 323 -119t137 -325h-157q-12 138 -95.5 213t-207.5 75q-133 0 -219 -86t-86 -243v-504q0 -157 86 -243.5t219 -86.5t219 86.5t86 243.5v141h-305v156h463v-297q0 -223 -127.5 -354t-335.5 -131t-335.5 131t-127.5 354z" />
<glyph unicode="H" horiz-adv-x="1253" d="M164 0v1434h158v-631h610v631h158v-1434h-158v647h-610v-647h-158z" />
<glyph unicode="I" horiz-adv-x="485" d="M164 0v1434h158v-1434h-158z" />
<glyph unicode="J" horiz-adv-x="968" d="M29 393v17h157v-17q0 -116 68.5 -187t171.5 -71t171.5 71t68.5 187v1041h157v-1041q0 -89 -23 -160.5t-61 -118t-90 -77.5t-107.5 -44t-115.5 -13t-115.5 13t-107.5 44t-90 77.5t-61 118t-23 160.5z" />
<glyph unicode="K" horiz-adv-x="1249" d="M164 0v1434h158v-779l661 779h201l-504 -590l557 -844h-186l-476 721l-253 -299v-422h-158z" />
<glyph unicode="L" horiz-adv-x="1009" d="M164 0v1434h158v-1278h657v-156h-815z" />
<glyph unicode="M" horiz-adv-x="1470" d="M164 0v1434h158l413 -869l414 869h158v-1434h-156v1102l-342 -717h-147l-343 717v-1102h-155z" />
<glyph unicode="N" horiz-adv-x="1253" d="M164 0v1434h158l610 -1129v1129h158v-1434h-158l-610 1128v-1128h-158z" />
<glyph unicode="O" horiz-adv-x="1167" d="M121 465v504q0 223 127.5 354t335.5 131t335.5 -131t127.5 -354v-504q0 -223 -127.5 -354t-335.5 -131t-335.5 131t-127.5 354zM279 465q0 -157 86 -243.5t219 -86.5t219 86.5t86 243.5v504q0 157 -86 243t-219 86t-219 -86t-86 -243v-504z" />
<glyph unicode="P" horiz-adv-x="1148" d="M164 0v1434h463q121 0 211.5 -32.5t145 -92t80.5 -138t26 -176.5t-26 -176t-80.5 -137.5t-145 -92t-211.5 -32.5h-305v-557h-158zM322 713h305q156 0 228.5 77.5t72.5 204.5t-72.5 205t-228.5 78h-305v-565z" />
<glyph unicode="Q" horiz-adv-x="1189" d="M121 465v504q0 223 127.5 354t335.5 131t335.5 -131t127.5 -354v-504q0 -171 -80 -293l159 -162l-104 -102l-154 158q-115 -86 -284 -86q-208 0 -335.5 131t-127.5 354zM279 465q0 -157 86 -243.5t219 -86.5q99 0 170 47l-160 164l102 103l156 -158q37 76 37 174v504 q0 157 -86 243t-219 86t-219 -86t-86 -243v-504z" />
<glyph unicode="R" horiz-adv-x="1171" d="M164 0h158v649h227l381 -649h182l-383 653q89 12 156 49.5t105 92t56.5 116t18.5 129.5q0 59 -13.5 114t-45 106.5t-78 89.5t-118 61t-159.5 23h-487v-1434zM322 801v477h329q119 0 186.5 -66.5t67.5 -171.5q0 -106 -67.5 -172.5t-186.5 -66.5h-329z" />
<glyph unicode="S" horiz-adv-x="1058" d="M74 424h162q18 -135 101.5 -212t201.5 -77q126 0 200 58t74 169q0 97 -55 157.5t-176 94.5l-183 52q-151 42 -226 154t-75 253q0 119 59 207t153.5 131t211.5 43q185 0 297 -99.5t135 -283.5h-161q-24 107 -91.5 167t-179.5 60q-125 0 -194.5 -63.5t-69.5 -161.5 q0 -99 51.5 -161t161.5 -93l168 -47q334 -94 334 -410q0 -176 -112 -279t-322 -103q-196 0 -323 120t-142 324z" />
<glyph unicode="T" horiz-adv-x="980" d="M29 1278v156h923v-156h-383v-1278h-157v1278h-383z" />
<glyph unicode="U" horiz-adv-x="1216" d="M145 465v969h158v-969q0 -157 86 -243.5t219 -86.5t219 86.5t86 243.5v969h158v-969q0 -223 -127.5 -354t-335.5 -131t-335.5 131t-127.5 354z" />
<glyph unicode="V" d="M29 1434h159l392 -1215l391 1215h159l-460 -1434h-181z" />
<glyph unicode="W" horiz-adv-x="1486" d="M55 1434l264 -1434h152l272 981l273 -981h151l265 1434h-156l-203 -1119l-254 914h-151l-254 -914l-203 1119h-156z" />
<glyph unicode="X" horiz-adv-x="1155" d="M37 0l434 741l-403 693h174l336 -580l335 580h174l-403 -693l434 -741h-180l-360 623l-361 -623h-180z" />
<glyph unicode="Y" horiz-adv-x="1116" d="M6 1434l473 -863v-571h158v569l473 865h-172l-379 -695l-381 695h-172z" />
<glyph unicode="Z" horiz-adv-x="1099" d="M80 0v156l741 1122h-731v156h916v-156l-742 -1122h752v-156h-936z" />
<glyph unicode="[" horiz-adv-x="561" d="M197 -233h284v131h-151v1405h151v131h-284v-1667z" />
<glyph unicode="\" horiz-adv-x="706" d="M-10 1434l579 -1434h148l-580 1434h-147z" />
<glyph unicode="]" horiz-adv-x="561" d="M80 -102h151v1405h-151v131h285v-1667h-285v131z" />
<glyph unicode="^" horiz-adv-x="1261" d="M133 614l426 820h143l426 -820h-153l-344 662l-344 -662h-154z" />
<glyph unicode="_" horiz-adv-x="827" d="M0 -123h827v-133h-827v133z" />
<glyph unicode="`" horiz-adv-x="622" d="M109 1434l241 -265h137l-157 265h-221z" />
<glyph unicode="a" horiz-adv-x="1079" d="M106 293q0 44 10.5 85.5t35 85t71.5 78.5t113 54q82 24 185 36t265 23v19q0 126 -75 195t-185 69q-95 0 -165.5 -53t-88.5 -152h-157q10 95 49 165.5t98 110t125 58t139 18.5q62 0 119 -12.5t111.5 -43.5t94.5 -77t64.5 -118t24.5 -162v-672h-154v109 q-100 -129 -329 -129q-69 0 -131 19t-112 56t-79 98t-29 140zM260 297q0 -76 58.5 -123t170.5 -47q130 0 213.5 67t83.5 187v137q-190 -13 -286.5 -27.5t-147.5 -41.5q-54 -30 -73 -65.5t-19 -86.5z" />
<glyph unicode="b" horiz-adv-x="1105" d="M154 0v1434h153v-478q38 62 110.5 95.5t149.5 33.5q62 0 119 -12.5t111.5 -43.5t94.5 -77t64.5 -118t24.5 -162v-279q0 -90 -24.5 -162t-64.5 -118t-94.5 -77t-111.5 -43.5t-119 -12.5q-77 0 -149.5 33.5t-110.5 95.5v-109h-153zM307 391q0 -126 75 -195t185 -69t185 69 t75 195v283q0 126 -75 195t-185 69t-185 -69t-75 -195v-283z" />
<glyph unicode="c" horiz-adv-x="1054" d="M125 393v279q0 90 24.5 162t64.5 118t94.5 77t111.5 43.5t119 12.5q74 0 140.5 -19t125.5 -59.5t98 -113t47 -170.5h-155q-14 103 -86.5 159t-169.5 56q-110 0 -185 -69t-75 -195v-283q0 -126 75 -195t185 -69q97 0 169.5 56t86.5 159h155q-8 -98 -47 -170.5t-98 -113 t-125.5 -59.5t-140.5 -19q-62 0 -119 12.5t-111.5 43t-94.5 76.5t-64.5 118t-24.5 163z" />
<glyph unicode="d" horiz-adv-x="1105" d="M125 393q0 -90 24.5 -162t64.5 -118t94.5 -77t111.5 -43.5t119 -12.5q77 0 149.5 33.5t110.5 95.5v-109h153v1434h-153v-478q-38 62 -110.5 95.5t-149.5 33.5q-62 0 -119 -12.5t-111.5 -43.5t-94.5 -77t-64.5 -118t-24.5 -162v-279zM279 391v283q0 126 75 195t185 69 t185 -69t75 -195v-283q0 -126 -75 -195t-185 -69t-185 69t-75 195z" />
<glyph unicode="e" horiz-adv-x="1067" d="M125 393v279q0 90 24.5 162t64.5 118t94.5 77t111.5 43.5t119 12.5t119 -12.5t111.5 -43.5t94 -77t64 -118t24.5 -162v-178h-673v-103q0 -126 75 -195t185 -69q95 0 165.5 53t88.5 152h157q-10 -95 -49 -165.5t-98 -110t-125 -58t-139 -18.5q-62 0 -119 12.5t-111.5 43.5 t-94.5 77t-64.5 118t-24.5 162zM279 635h520v39q0 126 -75 195t-185 69t-185 -69t-75 -195v-39z" />
<glyph unicode="f" horiz-adv-x="649" d="M57 909v148h150v125q0 138 54 195t198 57h162v-148h-162q-55 0 -77 -20.5t-22 -71.5v-137h261v-148h-261v-909h-153v909h-150z" />
<glyph unicode="g" horiz-adv-x="1103" d="M123 434v238q0 90 24.5 162t64.5 118t94.5 77t111.5 43.5t119 12.5q77 0 149.5 -33.5t110.5 -95.5v101h153v-1041q0 -91 -24.5 -163t-64 -118t-94 -76.5t-111.5 -43t-119 -12.5q-74 0 -140.5 19t-126 59.5t-98.5 113t-47 170.5h156q14 -103 86.5 -159t169.5 -56 q110 0 185 69t75 195v136q-38 -62 -111 -96t-149 -34q-62 0 -119 13t-111.5 43.5t-94.5 77t-64.5 118.5t-24.5 162zM276 432q0 -126 75.5 -195t185.5 -69t185 69t75 195v242q0 126 -75 195t-185 69t-185.5 -69t-75.5 -195v-242z" />
<glyph unicode="h" horiz-adv-x="1120" d="M154 0v1434h153v-478q38 62 110.5 95.5t149.5 33.5q62 0 119 -12.5t111.5 -43.5t94.5 -77t64.5 -118t24.5 -162v-672h-154v674q0 126 -75 195t-185 69t-185 -69t-75 -195v-674h-153z" />
<glyph unicode="i" horiz-adv-x="460" d="M154 0v1057h153v-1057h-153zM154 1235v199h153v-199h-153z" />
<glyph unicode="j" horiz-adv-x="460" d="M23 -229h32q55 0 77 20.5t22 71.5v1194h153v-1182q0 -138 -54 -195t-198 -57h-32v148zM154 1235v199h153v-199h-153z" />
<glyph unicode="k" horiz-adv-x="1034" d="M154 0v1434h153v-877l461 500h190l-380 -414l436 -643h-180l-361 530l-166 -180v-350h-153z" />
<glyph unicode="l" horiz-adv-x="520" d="M150 252q0 -139 53.5 -195.5t197.5 -56.5h33v147h-33q-55 0 -76.5 21t-21.5 72v1194h-153v-1182z" />
<glyph unicode="m" horiz-adv-x="1732" d="M154 0v1057h153v-101q36 60 108.5 94.5t137.5 34.5q96 0 182 -41t137 -124q51 83 138.5 124t183.5 41q59 0 114.5 -14t108 -45.5t91 -78.5t62 -117.5t23.5 -157.5v-672h-153v686q0 113 -73.5 182.5t-170.5 69.5q-100 0 -173 -71.5t-73 -192.5v-674h-153v686 q0 113 -73.5 182.5t-170.5 69.5q-100 0 -173 -71.5t-73 -192.5v-674h-153z" />
<glyph unicode="n" horiz-adv-x="1120" d="M154 0v1057h153v-101q38 62 110.5 95.5t149.5 33.5q62 0 119 -12.5t111.5 -43.5t94.5 -77t64.5 -118t24.5 -162v-672h-154v674q0 126 -75 195t-185 69t-185 -69t-75 -195v-674h-153z" />
<glyph unicode="o" horiz-adv-x="1077" d="M125 393v279q0 90 24.5 162t64.5 118t94.5 77t111.5 43.5t119 12.5t119 -12.5t111.5 -43.5t94 -77t64 -118t24.5 -162v-279q0 -90 -24.5 -162t-64 -118t-94 -77t-111.5 -43.5t-119 -12.5t-119 12.5t-111.5 43.5t-94.5 77t-64.5 118t-24.5 162zM279 391q0 -126 75 -195 t185 -69t185 69t75 195v283q0 126 -75 195t-185 69t-185 -69t-75 -195v-283z" />
<glyph unicode="p" horiz-adv-x="1105" d="M154 -377v1434h153v-101q38 62 110.5 95.5t149.5 33.5q62 0 119 -12.5t111.5 -43.5t94.5 -77t64.5 -118t24.5 -162v-279q0 -90 -24.5 -162t-64.5 -118t-94.5 -77t-111.5 -43.5t-119 -12.5q-77 0 -149.5 33.5t-110.5 95.5v-486h-153zM307 391q0 -126 75 -195t185 -69 t185 69t75 195v283q0 126 -75 195t-185 69t-185 -69t-75 -195v-283z" />
<glyph unicode="q" horiz-adv-x="1105" d="M125 393v279q0 90 24.5 162t64.5 118t94.5 77t111.5 43.5t119 12.5q77 0 149.5 -33.5t110.5 -95.5v101h153v-1434h-153v486q-38 -62 -110.5 -95.5t-149.5 -33.5q-62 0 -119 12.5t-111.5 43.5t-94.5 77t-64.5 118t-24.5 162zM279 391q0 -126 75 -195t185 -69t185 69 t75 195v283q0 126 -75 195t-185 69t-185 -69t-75 -195v-283z" />
<glyph unicode="r" horiz-adv-x="669" d="M154 0v1057h153v-111q38 62 110.5 95.5t149.5 33.5h68v-147h-68q-110 0 -185 -69t-75 -195v-664h-153z" />
<glyph unicode="s" horiz-adv-x="964" d="M80 338h158q10 -107 82 -159t184 -52q107 0 161 40.5t56 111.5q0 56 -33 95.5t-115 59.5l-206 51q-48 11 -90 31.5t-82.5 54t-64.5 87t-24 120.5q0 142 102.5 224.5t254.5 82.5q168 0 271.5 -83.5t115.5 -253.5h-158q-13 92 -73 141t-158 49q-88 0 -143.5 -41.5 t-55.5 -112.5q0 -62 38 -96.5t108 -50.5l198 -49q131 -32 201 -104t70 -210q0 -150 -101 -222t-272 -72q-85 0 -157.5 20.5t-131 62t-94 112t-41.5 163.5z" />
<glyph unicode="t" horiz-adv-x="698" d="M53 909h150v-657q0 -138 54 -195t198 -57h161v147h-161q-55 0 -77 21t-22 72v669h260v148h-260v239h-153v-239h-150v-148z" />
<glyph unicode="u" horiz-adv-x="1107" d="M139 387v670h154v-660q0 -68 22 -121t58.5 -85t81 -48t92.5 -16q104 0 179 70t75 194v666h153v-1057h-153v109q-38 -60 -110 -94.5t-144 -34.5q-56 0 -109.5 12t-109 41.5t-96.5 74.5t-67 117t-26 162z" />
<glyph unicode="v" horiz-adv-x="958" d="M12 1057l381 -1057h172l381 1057h-164l-303 -858l-303 858h-164z" />
<glyph unicode="w" horiz-adv-x="1400" d="M27 1057h159l205 -824l234 824h151l234 -824l204 824h160l-278 -1057h-160l-236 829l-235 -829h-160z" />
<glyph unicode="x" horiz-adv-x="970" d="M31 0l358 543l-342 514h178l260 -391l260 391h179l-342 -514l358 -543h-174l-281 428l-280 -428h-174z" />
<glyph unicode="y" horiz-adv-x="958" d="M12 1057h164l303 -858l303 858h164l-479 -1325q-21 -60 -75.5 -83.5t-158.5 -25.5h-59v148h78q46 0 64 14.5t28 46.5l55 152z" />
<glyph unicode="z" horiz-adv-x="954" d="M80 0v147l596 762h-582v148h768v-148l-596 -762h611v-147h-797z" />
<glyph unicode="{" horiz-adv-x="626" d="M111 535v131h45q61 0 83.5 24t22.5 80v412q0 138 54 195t198 57h33v-131h-45q-61 0 -84 -24.5t-23 -80.5v-412q0 -74 -13 -117t-54 -69q41 -26 54 -69.5t13 -116.5v-412q0 -56 23 -80t84 -24h45v-131h-33q-145 0 -198.5 56.5t-53.5 194.5v412q0 56 -22.5 80.5t-83.5 24.5 h-45z" />
<glyph unicode="|" horiz-adv-x="460" d="M164 -205v1639h133v-1639h-133z" />
<glyph unicode="}" horiz-adv-x="626" d="M80 -102v-131h33q145 0 198.5 56.5t53.5 194.5v412q0 56 22.5 80.5t83.5 24.5h45v131h-45q-61 0 -83.5 24t-22.5 80v412q0 138 -54 195t-198 57h-33v-131h45q61 0 83.5 -24.5t22.5 -80.5v-412q0 -73 13.5 -116.5t54.5 -69.5q-41 -26 -54.5 -70t-13.5 -116v-412 q0 -56 -22.5 -80t-83.5 -24h-45z" />
<glyph unicode="~" horiz-adv-x="1073" d="M123 555q120 133 270 133q60 0 113.5 -23.5t99 -47t86.5 -23.5q39 0 77.5 21t94.5 73l86 -94q-120 -133 -270 -133q-60 0 -113.5 23.5t-99 47t-86.5 23.5q-39 0 -77.5 -21t-94.5 -73z" />
<glyph unicode="&#xa1;" horiz-adv-x="501" d="M143 842v215h215v-215h-215zM174 -377v1004h154v-1004h-154z" />
<glyph unicode="&#xa2;" horiz-adv-x="1075" d="M135 393v279q0 103 31 182t85 126t117 72t136 31v187h88v-187q68 -6 128 -27.5t113 -62.5t87 -110t41 -160h-156q-13 90 -72 145t-141 66v-805q83 13 141.5 67.5t71.5 145.5h156q-7 -91 -41 -160t-87 -110t-113 -62.5t-128 -27.5v-187h-88v187q-58 4 -109.5 19.5 t-100 47.5t-83 77.5t-55.5 114t-21 152.5zM289 391q0 -113 60 -180.5t155 -81.5v805q-94 -13 -154.5 -80.5t-60.5 -179.5v-283z" />
<glyph unicode="&#xa3;" horiz-adv-x="1204" d="M133 0v147h33q55 0 76.5 20t21.5 71v426h-131v108h131v268q0 90 24.5 162t64.5 118.5t94.5 77t111.5 43.5t119 13t119 -13t111.5 -43.5t94.5 -77t64.5 -118.5t24.5 -162h-154v2q0 126 -75.5 195.5t-184.5 69.5t-184.5 -69.5t-75.5 -195.5v-270h520v-108h-520v-412 q0 -76 -23 -105h697v-147h-959z" />
<glyph unicode="&#xa4;" horiz-adv-x="1468" d="M133 172l174 174q-125 151 -125 350q0 197 125 351l-174 174l78 77l174 -176q149 127 350 127q197 0 348 -125l174 174l78 -77l-174 -174q127 -153 127 -351q0 -196 -127 -352l174 -172l-78 -78l-174 174q-151 -125 -348 -125q-199 0 -350 125l-174 -174zM330 696 q0 -167 119 -286t286 -119t286.5 119t119.5 286t-119.5 286.5t-286.5 119.5t-286 -119.5t-119 -286.5z" />
<glyph unicode="&#xa5;" horiz-adv-x="1202" d="M49 1434l416 -754h-277v-109h336v-176h-336v-108h336v-287h154v287h336v108h-336v176h336v109h-277l416 754h-170l-381 -699l-383 699h-170z" />
<glyph unicode="&#xa6;" horiz-adv-x="460" d="M164 -205v694h133v-694h-133zM164 739v695h133v-695h-133z" />
<glyph unicode="&#xa7;" horiz-adv-x="1122" d="M127 559q0 220 184 295q-121 98 -121 270q0 150 107 240t264 90q160 0 260 -83.5t121 -252.5h-135q-13 103 -79 156t-167 53q-104 0 -169 -56.5t-66 -150.5q0 -76 42 -130.5t103 -74.5l219 -73q42 -14 71 -26.5t68 -33t65.5 -45.5t51 -59t37 -79.5t12.5 -100.5 q0 -219 -186 -295q123 -103 123 -271q0 -149 -107 -239t-264 -90q-167 0 -267.5 93t-115.5 263h135q6 -105 74.5 -167t173.5 -62q104 0 169.5 56.5t66.5 150.5q0 75 -42.5 129.5t-103.5 74.5l-219 74q-42 14 -71 26.5t-68 33t-65.5 45.5t-51 59t-37 79.5t-12.5 100.5z M262 563q0 -83 52 -134.5t151 -84.5l166 -55q63 2 113 23t82.5 67.5t33.5 114.5q0 83 -52 134.5t-151 84.5l-165 55q-99 -5 -164 -55.5t-66 -149.5z" />
<glyph unicode="&#xa8;" horiz-adv-x="835" d="M137 1202v199h154v-199h-154zM545 1202v199h153v-199h-153z" />
<glyph unicode="&#xa9;" horiz-adv-x="1658" d="M92 717q0 150 58 286.5t157 235.5t235.5 157t286.5 58t287 -58t235.5 -157t157 -235.5t58.5 -286.5t-58.5 -286.5t-157 -235.5t-235.5 -157t-287 -58t-286.5 58t-235.5 157t-157 235.5t-58 286.5zM225 717q0 -165 80.5 -304.5t219.5 -220.5t304 -81t304.5 81t220 220.5 t80.5 304.5t-80.5 304.5t-220 220.5t-304.5 81t-304 -81t-219.5 -220.5t-80.5 -304.5zM516 582v270q0 138 86 221.5t227 83.5q134 0 220.5 -76t93.5 -204h-139q-8 70 -59.5 105.5t-115.5 35.5q-69 0 -121.5 -42.5t-52.5 -123.5v-270q0 -83 52.5 -125.5t121.5 -42.5 q64 0 115.5 36.5t59.5 106.5h139q-9 -129 -94.5 -205t-219.5 -76q-141 0 -227 83.5t-86 222.5z" />
<glyph unicode="&#xaa;" horiz-adv-x="661" d="M59 991q0 62 31.5 113t102.5 74q75 23 256 34q-4 54 -36.5 82.5t-86.5 28.5q-94 0 -121 -80h-135q7 48 26.5 85t45 59.5t58.5 37t63.5 20t62.5 5.5q44 0 85 -11.5t82 -38t66 -80t25 -126.5v-373h-133v58q-58 -70 -181 -70q-92 0 -151.5 46t-59.5 136zM193 1004 q0 -66 98 -66q160 0 160 133v25q-184 -11 -234 -43q-24 -12 -24 -49z" />
<glyph unicode="&#xab;" horiz-adv-x="958" d="M117 483l342 -301v178l-226 199l226 199v178l-342 -301v-152zM483 483l342 -301v178l-225 199l225 199v178l-342 -301v-152z" />
<glyph unicode="&#xac;" horiz-adv-x="1142" d="M158 508v133h827v-481h-133v348h-694z" />
<glyph unicode="&#xad;" horiz-adv-x="819" d="M113 508v133h594v-133h-594z" />
<glyph unicode="&#xae;" horiz-adv-x="1658" d="M92 717q0 150 58 286.5t157 235.5t235.5 157t286.5 58t287 -58t235.5 -157t157 -235.5t58.5 -286.5t-58.5 -286.5t-157 -235.5t-235.5 -157t-287 -58t-286.5 58t-235.5 157t-157 235.5t-58 286.5zM225 717q0 -165 80.5 -304.5t219.5 -220.5t304 -81t304.5 81t220 220.5 t80.5 304.5t-80.5 304.5t-220 220.5t-304.5 81t-304 -81t-219.5 -220.5t-80.5 -304.5zM545 289h139v362h133l213 -362h156l-217 368q91 19 140.5 80.5t49.5 159.5q0 117 -70.5 182.5t-195.5 65.5h-348v-856zM684 786v220h209q57 0 90 -28.5t33 -82.5q0 -53 -33 -81t-90 -28 h-209z" />
<glyph unicode="&#xaf;" horiz-adv-x="872" d="M131 1235v133h610v-133h-610z" />
<glyph unicode="&#xb0;" horiz-adv-x="847" d="M104 1124q0 132 94 226t226 94t225.5 -94t93.5 -226t-93.5 -225.5t-225.5 -93.5t-226 93.5t-94 225.5zM225 1124q0 -83 58 -141.5t141 -58.5t141 58.5t58 141.5t-58 142t-141 59t-141 -59t-58 -142z" />
<glyph unicode="&#xb1;" horiz-adv-x="1142" d="M158 0v133h827v-133h-827zM158 629v133h352v295h133v-295h342v-133h-342v-295h-133v295h-352z" />
<glyph unicode="&#xb2;" horiz-adv-x="632" d="M55 821v129l303 312q45 47 62.5 77t17.5 64q0 67 -33 100t-92 33t-92 -32.5t-33 -98.5v-8h-133v10q0 73 25 126.5t66 80.5t82 39t85 12t85 -12t82 -39t66 -80.5t25 -126.5q0 -66 -24.5 -115t-87.5 -114l-221 -228h333v-129h-516z" />
<glyph unicode="&#xb3;" horiz-adv-x="638" d="M53 1059q1 -58 18.5 -103t45 -72t64 -44.5t71 -24t70.5 -6.5q47 0 89.5 13.5t79 40.5t58.5 76t22 114q0 57 -26.5 108.5t-71.5 75.5q45 23 71.5 70t26.5 104q0 67 -25.5 119t-66 80t-83.5 41.5t-85 13.5t-83.5 -12t-81.5 -38.5t-66 -78t-27 -121.5h133q1 60 34.5 90.5 t90.5 30.5q58 0 92.5 -35t34.5 -90q0 -52 -33.5 -83.5t-93.5 -31.5h-71v-120h71q56 0 91.5 -33t35.5 -90t-32.5 -86t-88.5 -29q-58 0 -94 31t-37 90h-133z" />
<glyph unicode="&#xb4;" horiz-adv-x="622" d="M135 1169l158 265h221l-242 -265h-137z" />
<glyph unicode="&#xb5;" horiz-adv-x="1122" d="M154 -377v1434h153v-666q0 -124 75 -194t179 -70t179 70t75 194v666h154v-1057h-154v109q-38 -60 -110 -94.5t-144 -34.5t-144 34.5t-110 94.5v-486h-153z" />
<glyph unicode="&#xb6;" d="M68 1024q0 168 119.5 289t287.5 121h510v-1612h-131v1481h-225v-1481h-133v792h-21q-168 0 -287.5 120.5t-119.5 289.5z" />
<glyph unicode="&#xb7;" horiz-adv-x="583" d="M184 487v215h215v-215h-215z" />
<glyph unicode="&#xb8;" horiz-adv-x="548" d="M113 -324l145 324h133l-78 -324h-200z" />
<glyph unicode="&#xb9;" horiz-adv-x="444" d="M53 1343v173l160 137h133v-832h-133v660z" />
<glyph unicode="&#xba;" horiz-adv-x="657" d="M70 1067v127q0 59 17 105.5t43.5 74t62.5 45.5t69 24.5t68 6.5q44 0 85 -11.5t82 -38t66 -80t25 -126.5v-127q0 -73 -25 -126.5t-66 -80.5t-82 -39t-85 -12t-86 12t-83 39t-66 80.5t-25 126.5zM203 1071q0 -67 33.5 -100t93.5 -33q59 0 92 33t33 100v119q0 66 -33 99.5 t-92 33.5q-60 0 -93.5 -33.5t-33.5 -99.5v-119z" />
<glyph unicode="&#xbb;" horiz-adv-x="958" d="M133 182v178l225 199l-225 199v178l342 -301v-152zM500 182v178l225 199l-225 199v178l342 -301v-152z" />
<glyph unicode="&#xbc;" horiz-adv-x="1720" d="M252 1124v172l160 138h133v-832h-133v660zM295 0l985 1434h145l-985 -1434h-145zM1028 201v129l367 501h133v-501h88v-129h-88v-201h-133v201h-367zM1190 330h205v282z" />
<glyph unicode="&#xbd;" horiz-adv-x="1720" d="M252 1124v172l160 138h133v-832h-133v660zM295 0l985 1434h145l-985 -1434h-145zM1063 0v129l303 311q45 47 62.5 77t17.5 65q0 67 -33 100t-92 33t-92 -32.5t-33 -98.5v-9h-133v11q0 73 25 126.5t66 80.5t82 39t85 12t85 -12t82 -39t66 -80.5t25 -126.5 q0 -65 -24.5 -115t-88.5 -115l-221 -227h334v-129h-516z" />
<glyph unicode="&#xbe;" horiz-adv-x="1720" d="M139 840q1 -58 18.5 -103t45 -72t64 -44.5t71 -24t70.5 -6.5q47 0 89.5 13.5t79 40.5t58.5 76t22 114q0 57 -26.5 108.5t-71.5 75.5q45 23 71.5 70t26.5 104q0 67 -25.5 119t-66 80t-83.5 41.5t-85 13.5t-83.5 -12t-81.5 -38.5t-66 -78t-27 -121.5h133q1 60 34.5 90.5 t90.5 30.5q58 0 92.5 -35t34.5 -90q0 -52 -33.5 -83.5t-93.5 -31.5h-71v-121h71q56 0 91.5 -32.5t35.5 -89.5t-32.5 -86t-88.5 -29q-58 0 -94 31t-37 90h-133zM295 0l985 1434h145l-985 -1434h-145zM1028 201v129l367 501h133v-501h88v-129h-88v-201h-133v201h-367z M1190 330h205v282z" />
<glyph unicode="&#xbf;" horiz-adv-x="991" d="M98 16q0 86 41.5 170t100.5 138l122 112q43 40 58.5 71t15.5 75v45h154v-45q0 -81 -26.5 -132t-92.5 -112l-123 -113q-37 -36 -66.5 -92t-29.5 -119q0 -126 75 -195t185 -69t185 69t75 195v19h154v-17q0 -90 -24.5 -162t-64.5 -118t-94.5 -77t-111.5 -43.5t-119 -12.5 t-119 12.5t-111.5 43.5t-94.5 77t-64.5 118t-24.5 162zM406 842v215h215v-215h-215z" />
<glyph unicode="&#xc0;" d="M29 0l460 1434h181l460 -1434h-159l-131 403h-521l-131 -403h-159zM303 1749l262 -223h152l-189 223h-225zM367 549h426l-213 665z" />
<glyph unicode="&#xc1;" d="M29 0l460 1434h181l460 -1434h-159l-131 403h-521l-131 -403h-159zM367 549h426l-213 665zM442 1526l189 223h225l-262 -223h-152z" />
<glyph unicode="&#xc2;" d="M29 0l460 1434h181l460 -1434h-159l-131 403h-521l-131 -403h-159zM256 1526h203l121 104l120 -104h203l-256 223h-135zM367 549h426l-213 665z" />
<glyph unicode="&#xc3;" d="M29 0l460 1434h181l460 -1434h-159l-131 403h-521l-131 -403h-159zM254 1536q19 92 77 150.5t134 58.5q60 0 113 -29l61 -33q32 -16 53 -16q27 0 48.5 19t31.5 55h133q-19 -92 -77 -150.5t-134 -58.5q-59 0 -112 29l-62 32q-34 17 -53 17q-27 0 -48.5 -19t-31.5 -55h-133 zM367 549h426l-213 665z" />
<glyph unicode="&#xc4;" d="M29 0l460 1434h181l460 -1434h-159l-131 403h-521l-131 -403h-159zM299 1538v199h158v-199h-158zM367 549h426l-213 665zM702 1538v199h158v-199h-158z" />
<glyph unicode="&#xc5;" d="M29 0l460 1434h181l460 -1434h-159l-131 403h-521l-131 -403h-159zM367 549h426l-213 665zM428 1636q0 63 44.5 108.5t107.5 45.5t108 -45.5t45 -108.5t-45 -107t-108 -44t-107.5 44t-44.5 107zM526 1636q0 -22 16 -37.5t38 -15.5t37.5 15.5t15.5 37.5t-15.5 38t-37.5 16 t-38 -16t-16 -38z" />
<glyph unicode="&#xc6;" horiz-adv-x="1718" d="M14 0l660 1434h913v-156h-657v-475h657v-156h-657v-491h657v-156h-815v403h-405l-185 -403h-168zM434 549h338v735z" />
<glyph unicode="&#xc7;" horiz-adv-x="1144" d="M121 465v504q0 223 127.5 354t335.5 131q198 0 323 -119t137 -325h-157q-12 138 -95.5 213t-207.5 75q-133 0 -219 -86t-86 -243v-504q0 -157 86 -243.5t219 -86.5q124 0 207.5 75.5t95.5 213.5h157q-10 -181 -109.5 -296t-260.5 -140l-74 -312h-205l127 308 q-184 19 -292.5 146.5t-108.5 334.5z" />
<glyph unicode="&#xc8;" horiz-adv-x="1110" d="M164 0v1434h815v-156h-657v-475h657v-156h-657v-491h657v-156h-815zM295 1749l262 -223h152l-189 223h-225z" />
<glyph unicode="&#xc9;" horiz-adv-x="1110" d="M164 0v1434h815v-156h-657v-475h657v-156h-657v-491h657v-156h-815zM434 1526l189 223h225l-262 -223h-152z" />
<glyph unicode="&#xca;" horiz-adv-x="1110" d="M164 0v1434h815v-156h-657v-475h657v-156h-657v-491h657v-156h-815zM248 1526h203l120 104l121 -104h203l-256 223h-135z" />
<glyph unicode="&#xcb;" horiz-adv-x="1110" d="M164 0v1434h815v-156h-657v-475h657v-156h-657v-491h657v-156h-815zM291 1538v199h158v-199h-158zM694 1538v199h158v-199h-158z" />
<glyph unicode="&#xcc;" horiz-adv-x="485" d="M-35 1749l262 -223h152l-189 223h-225zM164 0v1434h158v-1434h-158z" />
<glyph unicode="&#xcd;" horiz-adv-x="485" d="M104 1526l189 223h225l-262 -223h-152zM164 0v1434h158v-1434h-158z" />
<glyph unicode="&#xce;" horiz-adv-x="485" d="M-82 1526h203l121 104l120 -104h203l-256 223h-135zM164 0v1434h158v-1434h-158z" />
<glyph unicode="&#xcf;" horiz-adv-x="485" d="M-39 1538v199h158v-199h-158zM164 0v1434h158v-1434h-158zM365 1538v199h157v-199h-157z" />
<glyph unicode="&#xd0;" horiz-adv-x="1232" d="M43 662v112h143v660h463q208 0 335.5 -131.5t127.5 -354.5v-463q0 -223 -127.5 -354t-335.5 -131h-463v662h-143zM344 156h305q133 0 219 86t86 243v463q0 157 -85.5 242.5t-219.5 87.5h-305v-504h305v-112h-305v-506z" />
<glyph unicode="&#xd1;" horiz-adv-x="1253" d="M164 0v1434h158l610 -1129v1129h158v-1434h-158l-610 1128v-1128h-158zM301 1536q19 92 77 150.5t134 58.5q60 0 113 -29l61 -33q32 -16 53 -16q27 0 48.5 19t31.5 55h133q-19 -92 -77 -150.5t-134 -58.5q-59 0 -112 29l-62 32q-34 17 -53 17q-27 0 -48.5 -19t-31.5 -55 h-133z" />
<glyph unicode="&#xd2;" horiz-adv-x="1167" d="M121 465v504q0 223 127.5 354t335.5 131t335.5 -131t127.5 -354v-504q0 -223 -127.5 -354t-335.5 -131t-335.5 131t-127.5 354zM279 465q0 -157 86 -243.5t219 -86.5t219 86.5t86 243.5v504q0 157 -86 243t-219 86t-219 -86t-86 -243v-504zM307 1749l262 -223h152 l-189 223h-225z" />
<glyph unicode="&#xd3;" horiz-adv-x="1167" d="M121 465v504q0 223 127.5 354t335.5 131t335.5 -131t127.5 -354v-504q0 -223 -127.5 -354t-335.5 -131t-335.5 131t-127.5 354zM279 465q0 -157 86 -243.5t219 -86.5t219 86.5t86 243.5v504q0 157 -86 243t-219 86t-219 -86t-86 -243v-504zM446 1526l189 223h225 l-262 -223h-152z" />
<glyph unicode="&#xd4;" horiz-adv-x="1167" d="M121 465v504q0 223 127.5 354t335.5 131t335.5 -131t127.5 -354v-504q0 -223 -127.5 -354t-335.5 -131t-335.5 131t-127.5 354zM260 1526h203l121 104l121 -104h202l-256 223h-135zM279 465q0 -157 86 -243.5t219 -86.5t219 86.5t86 243.5v504q0 157 -86 243t-219 86 t-219 -86t-86 -243v-504z" />
<glyph unicode="&#xd5;" horiz-adv-x="1167" d="M121 465v504q0 223 127.5 354t335.5 131t335.5 -131t127.5 -354v-504q0 -223 -127.5 -354t-335.5 -131t-335.5 131t-127.5 354zM258 1536q19 92 77 150.5t134 58.5q60 0 113 -29l61 -33q32 -16 53 -16q27 0 48.5 19t31.5 55h133q-19 -92 -77 -150.5t-134 -58.5 q-59 0 -112 29l-62 32q-34 17 -53 17q-27 0 -48.5 -19t-31.5 -55h-133zM279 465q0 -157 86 -243.5t219 -86.5t219 86.5t86 243.5v504q0 157 -86 243t-219 86t-219 -86t-86 -243v-504z" />
<glyph unicode="&#xd6;" horiz-adv-x="1167" d="M121 465v504q0 223 127.5 354t335.5 131t335.5 -131t127.5 -354v-504q0 -223 -127.5 -354t-335.5 -131t-335.5 131t-127.5 354zM279 465q0 -157 86 -243.5t219 -86.5t219 86.5t86 243.5v504q0 157 -86 243t-219 86t-219 -86t-86 -243v-504zM303 1538v199h158v-199h-158z M707 1538v199h157v-199h-157z" />
<glyph unicode="&#xd7;" horiz-adv-x="1142" d="M143 909l95 95l333 -336l336 336l94 -95l-335 -336l333 -331l-94 -95l-334 332l-331 -332l-95 95l332 331z" />
<glyph unicode="&#xd8;" horiz-adv-x="1179" d="M127 8l86 152q-86 125 -86 305v504q0 223 127.5 354t335.5 131q178 0 297 -96l69 125l97 -58l-86 -153q86 -122 86 -303v-504q0 -223 -127.5 -354t-335.5 -131q-177 0 -297 94l-68 -121zM285 465q0 -80 20 -139l500 888q-84 84 -215 84q-133 0 -219 -86t-86 -243v-504z M375 217q85 -82 215 -82q133 0 219 86.5t86 243.5v504q0 70 -23 137z" />
<glyph unicode="&#xd9;" horiz-adv-x="1216" d="M145 465v969h158v-969q0 -157 86 -243.5t219 -86.5t219 86.5t86 243.5v969h158v-969q0 -223 -127.5 -354t-335.5 -131t-335.5 131t-127.5 354zM332 1749l262 -223h151l-188 223h-225z" />
<glyph unicode="&#xda;" horiz-adv-x="1216" d="M145 465v969h158v-969q0 -157 86 -243.5t219 -86.5t219 86.5t86 243.5v969h158v-969q0 -223 -127.5 -354t-335.5 -131t-335.5 131t-127.5 354zM471 1526l188 223h226l-262 -223h-152z" />
<glyph unicode="&#xdb;" horiz-adv-x="1216" d="M145 465v969h158v-969q0 -157 86 -243.5t219 -86.5t219 86.5t86 243.5v969h158v-969q0 -223 -127.5 -354t-335.5 -131t-335.5 131t-127.5 354zM285 1526h202l121 104l121 -104h203l-256 223h-135z" />
<glyph unicode="&#xdc;" horiz-adv-x="1216" d="M145 465v969h158v-969q0 -157 86 -243.5t219 -86.5t219 86.5t86 243.5v969h158v-969q0 -223 -127.5 -354t-335.5 -131t-335.5 131t-127.5 354zM326 1538v199h157v-199h-157zM729 1538v199h158v-199h-158z" />
<glyph unicode="&#xdd;" horiz-adv-x="1116" d="M6 1434l473 -863v-571h158v569l473 865h-172l-379 -695l-381 695h-172zM422 1526l188 223h226l-263 -223h-151z" />
<glyph unicode="&#xde;" horiz-adv-x="1128" d="M164 0v1434h158v-279h305q121 0 211.5 -32.5t145 -92t80.5 -137.5t26 -176t-26 -176t-80.5 -137.5t-145 -92t-211.5 -32.5h-305v-279h-158zM322 434h305q156 0 228.5 78t72.5 205t-72.5 204.5t-228.5 77.5h-305v-565z" />
<glyph unicode="&#xdf;" horiz-adv-x="1079" d="M154 0v1075q0 105 28 180.5t79.5 118t114 61.5t140.5 19t140.5 -19t114 -61.5t80 -118t28.5 -180.5q0 -194 -99 -287q96 -52 148.5 -147.5t52.5 -226.5q0 -210 -109.5 -322t-293.5 -112q-50 0 -105 10v153q46 -16 105 -16q249 0 249 287q0 55 -16 104t-49 90.5 t-90.5 65.5t-132.5 24h-9h-14h-43v148h43q209 0 209 229q0 232 -209 232t-209 -232v-1075h-153z" />
<glyph unicode="&#xe0;" horiz-adv-x="1079" d="M106 293q0 44 10.5 85.5t35 85t71.5 78.5t113 54q82 24 185 36t265 23v19q0 126 -75 195t-185 69q-95 0 -165.5 -53t-88.5 -152h-157q10 95 49 165.5t98 110t125 58t139 18.5q62 0 119 -12.5t111.5 -43.5t94.5 -77t64.5 -118t24.5 -162v-672h-154v109 q-100 -129 -329 -129q-69 0 -131 19t-112 56t-79 98t-29 140zM260 297q0 -76 58.5 -123t170.5 -47q130 0 213.5 67t83.5 187v137q-190 -13 -286.5 -27.5t-147.5 -41.5q-54 -30 -73 -65.5t-19 -86.5zM262 1434l242 -265h137l-158 265h-221z" />
<glyph unicode="&#xe1;" horiz-adv-x="1079" d="M106 293q0 44 10.5 85.5t35 85t71.5 78.5t113 54q82 24 185 36t265 23v19q0 126 -75 195t-185 69q-95 0 -165.5 -53t-88.5 -152h-157q10 95 49 165.5t98 110t125 58t139 18.5q62 0 119 -12.5t111.5 -43.5t94.5 -77t64.5 -118t24.5 -162v-672h-154v109 q-100 -129 -329 -129q-69 0 -131 19t-112 56t-79 98t-29 140zM260 297q0 -76 58.5 -123t170.5 -47q130 0 213.5 67t83.5 187v137q-190 -13 -286.5 -27.5t-147.5 -41.5q-54 -30 -73 -65.5t-19 -86.5zM395 1169l158 265h221l-242 -265h-137z" />
<glyph unicode="&#xe2;" horiz-adv-x="1079" d="M106 293q0 44 10.5 85.5t35 85t71.5 78.5t113 54q82 24 185 36t265 23v19q0 126 -75 195t-185 69q-95 0 -165.5 -53t-88.5 -152h-157q10 95 49 165.5t98 110t125 58t139 18.5q62 0 119 -12.5t111.5 -43.5t94.5 -77t64.5 -118t24.5 -162v-672h-154v109 q-100 -129 -329 -129q-69 0 -131 19t-112 56t-79 98t-29 140zM209 1169l256 265h135l256 -265h-182l-142 146l-141 -146h-182zM260 297q0 -76 58.5 -123t170.5 -47q130 0 213.5 67t83.5 187v137q-190 -13 -286.5 -27.5t-147.5 -41.5q-54 -30 -73 -65.5t-19 -86.5z" />
<glyph unicode="&#xe3;" horiz-adv-x="1079" d="M106 293q0 44 10.5 85.5t35 85t71.5 78.5t113 54q82 24 185 36t265 23v19q0 126 -75 195t-185 69q-95 0 -165.5 -53t-88.5 -152h-157q10 95 49 165.5t98 110t125 58t139 18.5q62 0 119 -12.5t111.5 -43.5t94.5 -77t64.5 -118t24.5 -162v-672h-154v109 q-100 -129 -329 -129q-69 0 -131 19t-112 56t-79 98t-29 140zM207 1200q19 92 77 150.5t134 58.5q59 0 112 -29l62 -34q30 -19 63 -19q27 0 52 22.5t32 55.5h119q-19 -92 -77 -150.5t-134 -58.5q-59 0 -112 29l-62 35q-29 18 -63 18q-27 0 -52 -22.5t-32 -55.5h-119z M260 297q0 -76 58.5 -123t170.5 -47q130 0 213.5 67t83.5 187v137q-190 -13 -286.5 -27.5t-147.5 -41.5q-54 -30 -73 -65.5t-19 -86.5z" />
<glyph unicode="&#xe4;" horiz-adv-x="1079" d="M106 293q0 44 10.5 85.5t35 85t71.5 78.5t113 54q82 24 185 36t265 23v19q0 126 -75 195t-185 69q-95 0 -165.5 -53t-88.5 -152h-157q10 95 49 165.5t98 110t125 58t139 18.5q62 0 119 -12.5t111.5 -43.5t94.5 -77t64.5 -118t24.5 -162v-672h-154v109 q-100 -129 -329 -129q-69 0 -131 19t-112 56t-79 98t-29 140zM252 1202v199h154v-199h-154zM260 297q0 -76 58.5 -123t170.5 -47q130 0 213.5 67t83.5 187v137q-190 -13 -286.5 -27.5t-147.5 -41.5q-54 -30 -73 -65.5t-19 -86.5zM659 1202v199h154v-199h-154z" />
<glyph unicode="&#xe5;" horiz-adv-x="1079" d="M106 293q0 44 10.5 85.5t35 85t71.5 78.5t113 54q82 24 185 36t265 23v19q0 126 -75 195t-185 69q-95 0 -165.5 -53t-88.5 -152h-157q10 95 49 165.5t98 110t125 58t139 18.5q62 0 119 -12.5t111.5 -43.5t94.5 -77t64.5 -118t24.5 -162v-672h-154v109 q-100 -129 -329 -129q-69 0 -131 19t-112 56t-79 98t-29 140zM260 297q0 -76 58.5 -123t170.5 -47q130 0 213.5 67t83.5 187v137q-190 -13 -286.5 -27.5t-147.5 -41.5q-54 -30 -73 -65.5t-19 -86.5zM385 1300q0 63 44.5 108.5t107.5 45.5t108 -45.5t45 -108.5t-45 -107 t-108 -44t-107.5 44t-44.5 107zM479 1300q0 -23 17.5 -40t40.5 -17t40 17t17 40t-17 40.5t-40 17.5t-40.5 -17.5t-17.5 -40.5z" />
<glyph unicode="&#xe6;" horiz-adv-x="1728" d="M106 293q0 44 10.5 85.5t35 85t71.5 78.5t113 54q82 24 185 36t265 23v31q-4 120 -79 186t-181 66q-95 0 -165.5 -53t-88.5 -152h-157q10 95 49 165.5t98 110t125 58t139 18.5q227 0 336 -170q55 88 145 129t193 41q62 0 119 -12.5t111.5 -43.5t94.5 -77t64.5 -118 t24.5 -162v-178h-674v-103q0 -126 75 -195t185 -69q95 0 165.5 53t88.5 152h158q-10 -95 -49.5 -165.5t-98.5 -110t-125 -58t-139 -18.5q-117 0 -217 48t-152 150q-100 -198 -374 -198q-69 0 -131 19t-112 56t-79 98t-29 140zM260 297q0 -76 58.5 -123t170.5 -47 q130 0 213.5 67t83.5 187v137q-190 -13 -286.5 -27.5t-147.5 -41.5q-54 -30 -73 -65.5t-19 -86.5zM940 635h520v39q0 126 -75 195t-185 69t-185 -69t-75 -195v-39z" />
<glyph unicode="&#xe7;" horiz-adv-x="1054" d="M125 393v279q0 90 24.5 162t64.5 118t94.5 77t111.5 43.5t119 12.5q74 0 140.5 -19t125.5 -59.5t98 -113t47 -170.5h-155q-14 103 -86.5 159t-169.5 56q-110 0 -185 -69t-75 -195v-283q0 -126 75 -195t185 -69q97 0 169.5 56t86.5 159h155q-7 -84 -36.5 -149t-75 -106.5 t-98.5 -66t-115 -34.5l-74 -310h-201l137 306q-72 6 -134 31t-114.5 72t-83 126t-30.5 182z" />
<glyph unicode="&#xe8;" horiz-adv-x="1067" d="M125 393v279q0 90 24.5 162t64.5 118t94.5 77t111.5 43.5t119 12.5t119 -12.5t111.5 -43.5t94 -77t64 -118t24.5 -162v-178h-673v-103q0 -126 75 -195t185 -69q95 0 165.5 53t88.5 152h157q-10 -95 -49 -165.5t-98 -110t-125 -58t-139 -18.5q-62 0 -119 12.5t-111.5 43.5 t-94.5 77t-64.5 118t-24.5 162zM279 635h520v39q0 126 -75 195t-185 69t-185 -69t-75 -195v-39zM287 1434l241 -265h138l-158 265h-221z" />
<glyph unicode="&#xe9;" horiz-adv-x="1067" d="M125 393v279q0 90 24.5 162t64.5 118t94.5 77t111.5 43.5t119 12.5t119 -12.5t111.5 -43.5t94 -77t64 -118t24.5 -162v-178h-673v-103q0 -126 75 -195t185 -69q95 0 165.5 53t88.5 152h157q-10 -95 -49 -165.5t-98 -110t-125 -58t-139 -18.5q-62 0 -119 12.5t-111.5 43.5 t-94.5 77t-64.5 118t-24.5 162zM279 635h520v39q0 126 -75 195t-185 69t-185 -69t-75 -195v-39zM412 1169l157 265h222l-242 -265h-137z" />
<glyph unicode="&#xea;" horiz-adv-x="1067" d="M125 393v279q0 90 24.5 162t64.5 118t94.5 77t111.5 43.5t119 12.5t119 -12.5t111.5 -43.5t94 -77t64 -118t24.5 -162v-178h-673v-103q0 -126 75 -195t185 -69q95 0 165.5 53t88.5 152h157q-10 -95 -49 -165.5t-98 -110t-125 -58t-139 -18.5q-62 0 -119 12.5t-111.5 43.5 t-94.5 77t-64.5 118t-24.5 162zM215 1169l256 265h135l256 -265h-182l-141 146l-142 -146h-182zM279 635h520v39q0 126 -75 195t-185 69t-185 -69t-75 -195v-39z" />
<glyph unicode="&#xeb;" horiz-adv-x="1067" d="M125 393v279q0 90 24.5 162t64.5 118t94.5 77t111.5 43.5t119 12.5t119 -12.5t111.5 -43.5t94 -77t64 -118t24.5 -162v-178h-673v-103q0 -126 75 -195t185 -69q95 0 165.5 53t88.5 152h157q-10 -95 -49 -165.5t-98 -110t-125 -58t-139 -18.5q-62 0 -119 12.5t-111.5 43.5 t-94.5 77t-64.5 118t-24.5 162zM258 1202v199h154v-199h-154zM279 635h520v39q0 126 -75 195t-185 69t-185 -69t-75 -195v-39zM666 1202v199h153v-199h-153z" />
<glyph unicode="&#xec;" horiz-adv-x="460" d="M-23 1434l242 -265h137l-157 265h-222zM154 0v1057h153v-1057h-153z" />
<glyph unicode="&#xed;" horiz-adv-x="460" d="M102 1169l158 265h221l-241 -265h-138zM154 0v1057h153v-1057h-153z" />
<glyph unicode="&#xee;" horiz-adv-x="460" d="M-94 1169l256 265h135l256 -265h-182l-142 146l-141 -146h-182zM154 0v1057h153v-1057h-153z" />
<glyph unicode="&#xef;" horiz-adv-x="460" d="M-51 1202v199h153v-199h-153zM154 0v1057h153v-1057h-153zM356 1202v199h154v-199h-154z" />
<glyph unicode="&#xf0;" horiz-adv-x="1077" d="M125 393v279q0 90 24.5 162t64.5 118t94.5 77t111.5 43.5t119 12.5q7 0 22.5 -1t22.5 -1l-86 119h-256v109h176l-88 123h182l90 -123h182v-109h-102l199 -272q71 -96 71 -258v-279q0 -90 -24.5 -162t-64 -118t-94 -77t-111.5 -43.5t-119 -12.5t-119 12.5t-111.5 43.5 t-94.5 77t-64.5 118t-24.5 162zM279 391q0 -126 75 -195t185 -69t185 69t75 195v283q0 126 -75 195t-185 69t-185 -69t-75 -195v-283z" />
<glyph unicode="&#xf1;" horiz-adv-x="1120" d="M154 0v1057h153v-101q38 62 110.5 95.5t149.5 33.5q62 0 119 -12.5t111.5 -43.5t94.5 -77t64.5 -118t24.5 -162v-672h-154v674q0 126 -75 195t-185 69t-185 -69t-75 -195v-674h-153zM242 1200q19 92 77 150.5t134 58.5q59 0 112 -29l62 -34q30 -19 63 -19q27 0 52 22.5 t32 55.5h119q-19 -92 -77 -150.5t-134 -58.5q-60 0 -113 29l-61 35q-29 18 -64 18q-27 0 -52 -22.5t-32 -55.5h-118z" />
<glyph unicode="&#xf2;" horiz-adv-x="1077" d="M125 393v279q0 90 24.5 162t64.5 118t94.5 77t111.5 43.5t119 12.5t119 -12.5t111.5 -43.5t94 -77t64 -118t24.5 -162v-279q0 -90 -24.5 -162t-64 -118t-94 -77t-111.5 -43.5t-119 -12.5t-119 12.5t-111.5 43.5t-94.5 77t-64.5 118t-24.5 162zM279 391q0 -126 75 -195 t185 -69t185 69t75 195v283q0 126 -75 195t-185 69t-185 -69t-75 -195v-283zM287 1434l241 -265h138l-158 265h-221z" />
<glyph unicode="&#xf3;" horiz-adv-x="1077" d="M125 393v279q0 90 24.5 162t64.5 118t94.5 77t111.5 43.5t119 12.5t119 -12.5t111.5 -43.5t94 -77t64 -118t24.5 -162v-279q0 -90 -24.5 -162t-64 -118t-94 -77t-111.5 -43.5t-119 -12.5t-119 12.5t-111.5 43.5t-94.5 77t-64.5 118t-24.5 162zM279 391q0 -126 75 -195 t185 -69t185 69t75 195v283q0 126 -75 195t-185 69t-185 -69t-75 -195v-283zM412 1169l157 265h222l-242 -265h-137z" />
<glyph unicode="&#xf4;" horiz-adv-x="1077" d="M125 393v279q0 90 24.5 162t64.5 118t94.5 77t111.5 43.5t119 12.5t119 -12.5t111.5 -43.5t94 -77t64 -118t24.5 -162v-279q0 -90 -24.5 -162t-64 -118t-94 -77t-111.5 -43.5t-119 -12.5t-119 12.5t-111.5 43.5t-94.5 77t-64.5 118t-24.5 162zM215 1169l256 265h135 l256 -265h-182l-141 146l-142 -146h-182zM279 391q0 -126 75 -195t185 -69t185 69t75 195v283q0 126 -75 195t-185 69t-185 -69t-75 -195v-283z" />
<glyph unicode="&#xf5;" horiz-adv-x="1077" d="M125 393v279q0 90 24.5 162t64.5 118t94.5 77t111.5 43.5t119 12.5t119 -12.5t111.5 -43.5t94 -77t64 -118t24.5 -162v-279q0 -90 -24.5 -162t-64 -118t-94 -77t-111.5 -43.5t-119 -12.5t-119 12.5t-111.5 43.5t-94.5 77t-64.5 118t-24.5 162zM213 1200q19 92 77 150.5 t134 58.5q60 0 113 -29l61 -34q30 -19 64 -19q27 0 51.5 22.5t31.5 55.5h119q-19 -92 -77 -150.5t-134 -58.5q-59 0 -112 29l-62 35q-29 18 -63 18q-27 0 -52 -22.5t-32 -55.5h-119zM279 391q0 -126 75 -195t185 -69t185 69t75 195v283q0 126 -75 195t-185 69t-185 -69 t-75 -195v-283z" />
<glyph unicode="&#xf6;" horiz-adv-x="1077" d="M125 393v279q0 90 24.5 162t64.5 118t94.5 77t111.5 43.5t119 12.5t119 -12.5t111.5 -43.5t94 -77t64 -118t24.5 -162v-279q0 -90 -24.5 -162t-64 -118t-94 -77t-111.5 -43.5t-119 -12.5t-119 12.5t-111.5 43.5t-94.5 77t-64.5 118t-24.5 162zM258 1202v199h154v-199 h-154zM279 391q0 -126 75 -195t185 -69t185 69t75 195v283q0 126 -75 195t-185 69t-185 -69t-75 -195v-283zM666 1202v199h153v-199h-153z" />
<glyph unicode="&#xf7;" horiz-adv-x="1142" d="M158 508v133h827v-133h-827zM465 188q0 45 31 77t75 32t76.5 -32.5t32.5 -76.5t-32 -75t-77 -31q-44 0 -75 31t-31 75zM465 958q0 45 31 77t75 32t76.5 -32.5t32.5 -76.5t-32 -75t-77 -31q-44 0 -75 31t-31 75z" />
<glyph unicode="&#xf8;" horiz-adv-x="1089" d="M131 10l78 117q-78 100 -78 266v279q0 90 24.5 162t64.5 118t94.5 77t111.5 43.5t119 12.5q148 0 254 -71l67 102l92 -61l-77 -117q77 -103 77 -266v-279q0 -90 -24.5 -162t-64 -118t-94 -77t-111.5 -43.5t-119 -12.5q-153 0 -256 71l-68 -100zM285 391q0 -65 22 -117 l406 611q-71 53 -168 53q-110 0 -185 -69t-75 -195v-283zM375 182q70 -55 170 -55q110 0 185 69t75 195v283q0 63 -23 117z" />
<glyph unicode="&#xf9;" horiz-adv-x="1107" d="M139 387v670h154v-660q0 -68 22 -121t58.5 -85t81 -48t92.5 -16q104 0 179 70t75 194v666h153v-1057h-153v109q-38 -60 -110 -94.5t-144 -34.5q-56 0 -109.5 12t-109 41.5t-96.5 74.5t-67 117t-26 162zM295 1434l242 -265h137l-158 265h-221z" />
<glyph unicode="&#xfa;" horiz-adv-x="1107" d="M139 387v670h154v-660q0 -68 22 -121t58.5 -85t81 -48t92.5 -16q104 0 179 70t75 194v666h153v-1057h-153v109q-38 -60 -110 -94.5t-144 -34.5q-56 0 -109.5 12t-109 41.5t-96.5 74.5t-67 117t-26 162zM420 1169l158 265h221l-242 -265h-137z" />
<glyph unicode="&#xfb;" horiz-adv-x="1107" d="M139 387v670h154v-660q0 -68 22 -121t58.5 -85t81 -48t92.5 -16q104 0 179 70t75 194v666h153v-1057h-153v109q-38 -60 -110 -94.5t-144 -34.5q-56 0 -109.5 12t-109 41.5t-96.5 74.5t-67 117t-26 162zM223 1169l256 265h135l256 -265h-182l-141 146l-141 -146h-183z" />
<glyph unicode="&#xfc;" horiz-adv-x="1107" d="M139 387v670h154v-660q0 -68 22 -121t58.5 -85t81 -48t92.5 -16q104 0 179 70t75 194v666h153v-1057h-153v109q-38 -60 -110 -94.5t-144 -34.5q-56 0 -109.5 12t-109 41.5t-96.5 74.5t-67 117t-26 162zM266 1202v199h154v-199h-154zM674 1202v199h153v-199h-153z" />
<glyph unicode="&#xfd;" horiz-adv-x="958" d="M12 1057h164l303 -858l303 858h164l-479 -1325q-21 -60 -75.5 -83.5t-158.5 -25.5h-59v148h78q46 0 64 14.5t28 46.5l55 152zM352 1169l158 265h221l-242 -265h-137z" />
<glyph unicode="&#xfe;" horiz-adv-x="1105" d="M154 -377v1811h153v-478q38 62 110.5 95.5t149.5 33.5q62 0 119 -12.5t111.5 -43.5t94.5 -77t64.5 -118t24.5 -162v-279q0 -90 -24.5 -162t-64.5 -118t-94.5 -77t-111.5 -43.5t-119 -12.5q-77 0 -149.5 33.5t-110.5 95.5v-486h-153zM307 391q0 -126 75 -195t185 -69 t185 69t75 195v283q0 126 -75 195t-185 69t-185 -69t-75 -195v-283z" />
<glyph unicode="&#xff;" horiz-adv-x="958" d="M12 1057h164l303 -858l303 858h164l-479 -1325q-21 -60 -75.5 -83.5t-158.5 -25.5h-59v148h78q46 0 64 14.5t28 46.5l55 152zM199 1202v199h153v-199h-153zM606 1202v199h154v-199h-154z" />
<glyph unicode="&#x152;" horiz-adv-x="1835" d="M121 465v504q0 223 127.5 354t335.5 131q197 0 305 -121v101h815v-156h-657v-475h657v-156h-657v-491h657v-156h-815v100q-107 -120 -305 -120q-208 0 -335.5 131t-127.5 354zM279 465q0 -157 86 -243.5t219 -86.5t219 86.5t86 243.5v504q0 157 -86 243t-219 86t-219 -86 t-86 -243v-504z" />
<glyph unicode="&#x153;" horiz-adv-x="1740" d="M125 393v279q0 90 24.5 162t64.5 118t94.5 77t111.5 43.5t119 12.5q226 0 335 -170q55 88 145 129t193 41q62 0 119 -12.5t111.5 -43.5t94.5 -77t64.5 -118t24.5 -162v-178h-674v-103q0 -126 75 -195t185 -69q95 0 165.5 53t88.5 152h158q-10 -95 -49.5 -165.5 t-98.5 -110t-125 -58t-139 -18.5q-103 0 -193 41t-145 129q-109 -170 -335 -170q-62 0 -119 12.5t-111.5 43.5t-94.5 77t-64.5 118t-24.5 162zM279 391q0 -126 75 -195t185 -69t185 69t75 195v283q0 126 -75 195t-185 69t-185 -69t-75 -195v-283zM952 635h521v39 q0 126 -75.5 195t-185.5 69t-185 -69t-75 -195v-39z" />
<glyph unicode="&#x178;" horiz-adv-x="1116" d="M6 1434l473 -863v-571h158v569l473 865h-172l-379 -695l-381 695h-172zM279 1538v199h157v-199h-157zM682 1538v199h158v-199h-158z" />
<glyph unicode="&#x2c6;" horiz-adv-x="884" d="M119 1169l256 265h135l256 -265h-182l-142 146l-141 -146h-182z" />
<glyph unicode="&#x2dc;" horiz-adv-x="901" d="M125 1200q19 92 77 150.5t134 58.5q60 0 113 -29l61 -34q30 -19 63 -19q27 0 52 22.5t32 55.5h119q-19 -92 -77 -150.5t-134 -58.5q-59 0 -112 29l-62 35q-29 18 -63 18q-27 0 -52 -22.5t-32 -55.5h-119z" />
<glyph unicode="&#x2000;" horiz-adv-x="895" />
<glyph unicode="&#x2001;" horiz-adv-x="1790" />
<glyph unicode="&#x2002;" horiz-adv-x="895" />
<glyph unicode="&#x2003;" horiz-adv-x="1790" />
<glyph unicode="&#x2004;" horiz-adv-x="596" />
<glyph unicode="&#x2005;" horiz-adv-x="447" />
<glyph unicode="&#x2006;" horiz-adv-x="298" />
<glyph unicode="&#x2007;" horiz-adv-x="298" />
<glyph unicode="&#x2008;" horiz-adv-x="223" />
<glyph unicode="&#x2009;" horiz-adv-x="358" />
<glyph unicode="&#x200a;" horiz-adv-x="99" />
<glyph unicode="&#x2010;" horiz-adv-x="819" d="M113 508v133h594v-133h-594z" />
<glyph unicode="&#x2011;" horiz-adv-x="819" d="M113 508v133h594v-133h-594z" />
<glyph unicode="&#x2012;" horiz-adv-x="819" d="M113 508v133h594v-133h-594z" />
<glyph unicode="&#x2013;" horiz-adv-x="1052" d="M113 508v133h827v-133h-827z" />
<glyph unicode="&#x2014;" horiz-adv-x="1665" d="M113 508v133h1439v-133h-1439z" />
<glyph unicode="&#x2018;" horiz-adv-x="493" d="M139 1026v215l72 193h131l-72 -193h84v-215h-215z" />
<glyph unicode="&#x2019;" horiz-adv-x="493" d="M139 1219v215h215v-215l-71 -193h-131l71 193h-84z" />
<glyph unicode="&#x201a;" horiz-adv-x="493" d="M139 0v215h215v-215l-71 -193h-131l71 193h-84z" />
<glyph unicode="&#x201c;" horiz-adv-x="868" d="M139 1026v215l72 193h131l-72 -193h84v-215h-215zM514 1026v215l72 193h131l-72 -193h84v-215h-215z" />
<glyph unicode="&#x201d;" horiz-adv-x="868" d="M139 1219v215h215v-215l-71 -193h-131l71 193h-84zM514 1219v215h215v-215l-72 -193h-131l72 193h-84z" />
<glyph unicode="&#x201e;" horiz-adv-x="868" d="M139 0v215h215v-215l-71 -193h-131l71 193h-84zM514 0v215h215v-215l-72 -193h-131l72 193h-84z" />
<glyph unicode="&#x2022;" horiz-adv-x="1638" d="M475 713q0 143 100.5 243.5t243.5 100.5t243.5 -100.5t100.5 -243.5t-100.5 -243.5t-243.5 -100.5t-243.5 100.5t-100.5 243.5z" />
<glyph unicode="&#x2026;" horiz-adv-x="1603" d="M160 0v215h215v-215h-215zM694 0v215h215v-215h-215zM1229 0v215h215v-215h-215z" />
<glyph unicode="&#x202f;" horiz-adv-x="358" />
<glyph unicode="&#x2039;" horiz-adv-x="591" d="M117 483l342 -301v178l-226 199l226 199v178l-342 -301v-152z" />
<glyph unicode="&#x203a;" horiz-adv-x="591" d="M133 182v178l225 199l-225 199v178l342 -301v-152z" />
<glyph unicode="&#x205f;" horiz-adv-x="447" />
<glyph unicode="&#x20ac;" horiz-adv-x="1193" d="M90 543h158v-78q0 -223 127.5 -354t335.5 -131q240 0 368 170l-125 94q-86 -117 -243 -117q-134 0 -222 89t-88 249v78h476l28 108h-504v133h539l27 109h-566v76q0 160 88 249t222 89q157 0 243 -117l125 94q-128 170 -368 170q-208 0 -335.5 -131t-127.5 -354v-76h-131 l-27 -109h158v-133h-129z" />
<glyph unicode="&#x2122;" horiz-adv-x="1525" d="M14 1303v131h604v-131h-235v-701h-133v701h-236zM727 602v832h133l219 -453l219 453h134v-832h-132v567l-165 -344h-109l-166 344v-567h-133z" />
<glyph unicode="&#x25fc;" horiz-adv-x="1054" d="M0 0v1055h1055v-1055h-1055z" />
</font>
</defs>
</svg>
